<svg width="800" height="800" xmlns="http://www.w3.org/2000/svg">
<rect width="100%" height="100%" fill="#121212" />
<polygon points="564,400 701.05,448.925 679.818,493.417" fill="#FFD700" fill-opacity="0.1" stroke="#FFD700" stroke-width="0.5" />
<polygon points="564,400 679.818,493.417 673.606,543.599" fill="#FFD700" fill-opacity="0.1" stroke="#FFD700" stroke-width="0.5" />
<polygon points="564,400 673.606,543.599 614.251,560.999" fill="#FFD700" fill-opacity="0.1" stroke="#FFD700" stroke-width="0.5" />
<polygon points="564,400 614.251,560.999 591.192,599.052" fill="#FFD700" fill-opacity="0.1" stroke="#FFD700" stroke-width="0.5" />
<polygon points="564,400 591.192,599.052 496.003,539.084" fill="#FFD700" fill-opacity="0.1" stroke="#FFD700" stroke-width="0.5" />
<polygon points="564,400 496.003,539.084 469.02,545.456" fill="#FFD700" fill-opacity="0.1" stroke="#FFD700" stroke-width="0.5" />
<polygon points="469.02,545.456 485.135,693.919 431.098,656.119" fill="#FFD700" fill-opacity="0.1" stroke="#FFD700" stroke-width="0.5" />
<polygon points="469.02,545.456 431.098,656.119 391.343,614.826" fill="#FFD700" fill-opacity="0.1" stroke="#FFD700" stroke-width="0.5" />
<polygon points="469.02,545.456 391.343,614.826 368.996,551.868" fill="#FFD700" fill-opacity="0.1" stroke="#FFD700" stroke-width="0.5" />
<polygon points="368.996,551.868 323.051,602.899 317,543.76" fill="#FFD700" fill-opacity="0.1" stroke="#FFD700" stroke-width="0.5" />
<polygon points="317,543.76 266.554,563.442 257.034,526.656" fill="#FFD700" fill-opacity="0.1" stroke="#FFD700" stroke-width="0.5" />
<polygon points="317,543.76 257.034,526.656 257.163,490.325" fill="#FFD700" fill-opacity="0.1" stroke="#FFD700" stroke-width="0.5" />
<polygon points="257.163,490.325 207.724,481.921 127.165,467.248" fill="#FFD700" fill-opacity="0.1" stroke="#FFD700" stroke-width="0.5" />
<polygon points="257.163,490.325 127.165,467.248 156.791,419.634" fill="#FFD700" fill-opacity="0.1" stroke="#FFD700" stroke-width="0.5" />
<polygon points="257.163,490.325 156.791,419.634 98.9793,375.699" fill="#FFD700" fill-opacity="0.1" stroke="#FFD700" stroke-width="0.5" />
<polygon points="257.163,490.325 98.9793,375.699 230.085,358.12" fill="#FFD700" fill-opacity="0.1" stroke="#FFD700" stroke-width="0.5" />
<polygon points="206.804,317.687 167.573,253.022 182.183,207.031" fill="#FFD700" fill-opacity="0.1" stroke="#FFD700" stroke-width="0.5" />
<polygon points="206.804,317.687 182.183,207.031 275.408,247.403" fill="#FFD700" fill-opacity="0.1" stroke="#FFD700" stroke-width="0.5" />
<polygon points="206.804,317.687 275.408,247.403 324.5,269.23" fill="#FFD700" fill-opacity="0.1" stroke="#FFD700" stroke-width="0.5" />
<polygon points="324.5,269.23 315.604,177.466 338.192,97.2447" fill="#FFD700" fill-opacity="0.1" stroke="#FFD700" stroke-width="0.5" />
<polygon points="324.5,269.23 338.192,97.2447 387.88,99.2441" fill="#FFD700" fill-opacity="0.1" stroke="#FFD700" stroke-width="0.5" />
<polygon points="324.5,269.23 387.88,99.2441 431.219,142.888" fill="#FFD700" fill-opacity="0.1" stroke="#FFD700" stroke-width="0.5" />
<polygon points="324.5,269.23 431.219,142.888 490.142,88.7921" fill="#FFD700" fill-opacity="0.1" stroke="#FFD700" stroke-width="0.5" />
<polygon points="324.5,269.23 490.142,88.7921 489.168,212.082" fill="#FFD700" fill-opacity="0.1" stroke="#FFD700" stroke-width="0.5" />
<polygon points="324.5,269.23 489.168,212.082 488.618,271.615" fill="#FFD700" fill-opacity="0.1" stroke="#FFD700" stroke-width="0.5" />
<polygon points="488.618,271.615 562.79,230.517 661.418,203.557" fill="#FFD700" fill-opacity="0.1" stroke="#FFD700" stroke-width="0.5" />
<polygon points="488.618,271.615 661.418,203.557 607.197,291.255" fill="#FFD700" fill-opacity="0.1" stroke="#FFD700" stroke-width="0.5" />
<polygon points="488.618,271.615 607.197,291.255 595.399,334.766" fill="#FFD700" fill-opacity="0.1" stroke="#FFD700" stroke-width="0.5" />
<polygon points="595.399,334.766 733.623,345.781 564,400" fill="#FFD700" fill-opacity="0.1" stroke="#FFD700" stroke-width="0.5" />
<polygon points="595.399,334.766 564,400 469.02,545.456" fill="#FFD700" fill-opacity="0.1" stroke="#FFD700" stroke-width="0.5" />
<polygon points="595.399,334.766 469.02,545.456 368.996,551.868" fill="#FFD700" fill-opacity="0.1" stroke="#FFD700" stroke-width="0.5" />
<polygon points="595.399,334.766 368.996,551.868 317,543.76" fill="#FFD700" fill-opacity="0.1" stroke="#FFD700" stroke-width="0.5" />
<polygon points="595.399,334.766 317,543.76 257.163,490.325" fill="#FFD700" fill-opacity="0.1" stroke="#FFD700" stroke-width="0.5" />
<polygon points="595.399,334.766 257.163,490.325 230.085,358.12" fill="#FFD700" fill-opacity="0.1" stroke="#FFD700" stroke-width="0.5" />
<polygon points="595.399,334.766 230.085,358.12 206.804,317.687" fill="#FFD700" fill-opacity="0.1" stroke="#FFD700" stroke-width="0.5" />
<polygon points="595.399,334.766 206.804,317.687 324.5,269.23" fill="#FFD700" fill-opacity="0.1" stroke="#FFD700" stroke-width="0.5" />
<polygon points="595.399,334.766 324.5,269.23 488.618,271.615" fill="#FFD700" fill-opacity="0.1" stroke="#FFD700" stroke-width="0.5" />
<polygon points="564,400 701.05,448.925 679.818,493.417 673.606,543.599 614.251,560.999 591.192,599.052 496.003,539.084 469.02,545.456 485.135,693.919 431.098,656.119 391.343,614.826 368.996,551.868 323.051,602.899 317,543.76 266.554,563.442 257.034,526.656 257.163,490.325 207.724,481.921 127.165,467.248 156.791,419.634 98.9793,375.699 230.085,358.12 206.804,317.687 167.573,253.022 182.183,207.031 275.408,247.403 324.5,269.23 315.604,177.466 338.192,97.2447 387.88,99.2441 431.219,142.888 490.142,88.7921 489.168,212.082 488.618,271.615 562.79,230.517 661.418,203.557 607.197,291.255 595.399,334.766 733.623,345.781 " fill="none" stroke="#7CFF01" stroke-width="2" />
<circle cx="564" cy="400" r="3" fill="white" />
<circle cx="701.05" cy="448.925" r="3" fill="white" />
<circle cx="679.818" cy="493.417" r="3" fill="white" />
<circle cx="673.606" cy="543.599" r="3" fill="white" />
<circle cx="614.251" cy="560.999" r="3" fill="white" />
<circle cx="591.192" cy="599.052" r="3" fill="white" />
<circle cx="496.003" cy="539.084" r="3" fill="white" />
<circle cx="469.02" cy="545.456" r="3" fill="white" />
<circle cx="485.135" cy="693.919" r="3" fill="white" />
<circle cx="431.098" cy="656.119" r="3" fill="white" />
<circle cx="391.343" cy="614.826" r="3" fill="white" />
<circle cx="368.996" cy="551.868" r="3" fill="white" />
<circle cx="323.051" cy="602.899" r="3" fill="white" />
<circle cx="317" cy="543.76" r="3" fill="white" />
<circle cx="266.554" cy="563.442" r="3" fill="white" />
<circle cx="257.034" cy="526.656" r="3" fill="white" />
<circle cx="257.163" cy="490.325" r="3" fill="white" />
<circle cx="207.724" cy="481.921" r="3" fill="white" />
<circle cx="127.165" cy="467.248" r="3" fill="white" />
<circle cx="156.791" cy="419.634" r="3" fill="white" />
<circle cx="98.9793" cy="375.699" r="3" fill="white" />
<circle cx="230.085" cy="358.12" r="3" fill="white" />
<circle cx="206.804" cy="317.687" r="3" fill="white" />
<circle cx="167.573" cy="253.022" r="3" fill="white" />
<circle cx="182.183" cy="207.031" r="3" fill="white" />
<circle cx="275.408" cy="247.403" r="3" fill="white" />
<circle cx="324.5" cy="269.23" r="3" fill="white" />
<circle cx="315.604" cy="177.466" r="3" fill="white" />
<circle cx="338.192" cy="97.2447" r="3" fill="white" />
<circle cx="387.88" cy="99.2441" r="3" fill="white" />
<circle cx="431.219" cy="142.888" r="3" fill="white" />
<circle cx="490.142" cy="88.7921" r="3" fill="white" />
<circle cx="489.168" cy="212.082" r="3" fill="white" />
<circle cx="488.618" cy="271.615" r="3" fill="white" />
<circle cx="562.79" cy="230.517" r="3" fill="white" />
<circle cx="661.418" cy="203.557" r="3" fill="white" />
<circle cx="607.197" cy="291.255" r="3" fill="white" />
<circle cx="595.399" cy="334.766" r="3" fill="white" />
<circle cx="733.623" cy="345.781" r="3" fill="white" />
</svg>